<svg id="Layer_1" data-name="Layer 1" xmlns="http://www.w3.org/2000/svg" viewBox="0 0 275.79 89.64">
  <defs>
    <style>
      .cls-1 {
        fill: #cfd1d1;
      }

      .cls-2 {
        fill: #444a4d;
      }

      .cls-3 {
        fill: #c6c7c9;
      }

      .cls-4 {
        fill: #14a8e2;
      }

      .cls-5 {
        fill: #ebe900;
      }

      .cls-6 {
        fill: #f89400;
      }

      .cls-7 {
        fill: #cf841d;
      }

      .cls-8 {
        fill: #7dc336;
      }

      .cls-9 {
        fill: #8eb520;
      }

      .cls-10 {
        fill: #13ab45;
      }

      .cls-11 {
        fill: #b0d31c;
      }
    </style>
  </defs>
  <title>Untitled-1</title>
  <g id="Logo">
    <path id="Path_5" data-name="Path 5" class="cls-1" d="M51,94.6a.81.81,0,0,1,0,.22H47.51v-.23A3,3,0,0,1,51,94.6Z" transform="translate(-4.51 -5.18)"/>
    <path id="Path_6" data-name="Path 6" class="cls-2" d="M51,94.61H47.5a44.73,44.73,0,1,1,41.65-64.9A44.76,44.76,0,0,1,56.5,94C54.66,94.31,52.82,94.51,51,94.61Z" transform="translate(-4.51 -5.18)"/>
    <path id="Path_7" data-name="Path 7" class="cls-2" d="M139.12,65.2V77.48c0,.84-.15,1.2-1.08,1.09a25.66,25.66,0,0,0-3.72,0c-.95,0-1.22-.25-1.2-1.19V68.24c0-.93-.23-1.21-1.18-1.19q-4.22.11-8.44,0c-.9,0-1.08.25-1.08,1.08v9.29c0,.9-.27,1.16-1.14,1.08-1.28-.06-2.58,0-3.87,0-.69,0-1-.11-1-.92v-25c0-.7.24-.9.91-.87,1.33,0,2.67.06,4,0,1,0,1.08.36,1.08,1.18v8c0,.86.2,1.16,1.08,1.09h8.58c.84,0,1.08-.3,1.08-1.09V53.07c0-1.18.37-1.49,1.45-1.4a19.47,19.47,0,0,0,3.24,0c1-.07,1.29.24,1.28,1.26C139.08,57.12,139.12,61.16,139.12,65.2Z" transform="translate(-4.51 -5.18)"/>
    <path id="Path_10" data-name="Path 10" class="cls-2" d="M208.17,61.86A7.47,7.47,0,0,1,216.6,59c2.7.69,4.18,2.53,4.32,5.83.18,4.32.07,8.64.1,13,0,.66-.28.79-.85.78a29.18,29.18,0,0,0-3.24,0c-1,.06-1.31-.24-1.29-1.26.06-3.09,0-6.18,0-9.27a16.52,16.52,0,0,0-.07-1.86c-.22-2.16-1.23-3.16-3.09-3.24-2.27-.09-3.57.88-4,3a23,23,0,0,0-.24,4.83v6.85c0,.76-.22,1-1,1-1.45-.13-3.31.6-4.26-.32s-.22-2.62-.22-4V53.15c0-1.08.26-1.46,1.34-1.36a15.29,15.29,0,0,0,2.87,0c1-.08,1.32.24,1.28,1.25C208.11,55.87,208.17,58.67,208.17,61.86Z" transform="translate(-4.51 -5.18)"/>
    <path id="Path_11" data-name="Path 11" class="cls-2" d="M163.21,34.39c1.91-1.72,4-3.55,6-5.4a2,2,0,0,1,1.6-.7c1.7.05,3.4,0,5.18,0-1.6,1.66-3.08,3.3-4.65,4.82-2.37,2.27-2.39,2.24-.6,4.92l6.38,9.62h-6.18c-.59,0-.72-.54-1-.93q-2.34-3.75-4.64-7.5a3.73,3.73,0,0,0-2.16,4.19,21.9,21.9,0,0,1,0,3.24c0,.73-.2,1.08-1,1a32.89,32.89,0,0,0-3.44,0c-.76,0-1-.25-1-1V21.79c0-.72.21-1,1-1a29.18,29.18,0,0,0,3.24,0c.91,0,1.08.27,1.08,1.08C163.19,26.29,163.21,30.55,163.21,34.39Z" transform="translate(-4.51 -5.18)"/>
    <path id="Path_17" data-name="Path 17" class="cls-2" d="M116.5,34.19v-12c0-.93.15-1.41,1.23-1.3,1.54.18,3.62-.67,4.5.35s.25,2.9.25,4.41V41.22c0,1.08.21,1.45,1.39,1.43,3.48-.08,7,0,10.44,0,.95,0,1.26.27,1.19,1.2-.1,1.23.36,2.82-.25,3.59s-2.33.26-3.55.27H118c-1.24,0-1.47-.38-1.44-1.51C116.55,42.18,116.5,38.18,116.5,34.19Z" transform="translate(-4.51 -5.18)"/>
    <path id="Path_18" data-name="Path 18" class="cls-2" d="M191.8,69.25c0-1.66-.1-3.34,0-5,.1-1.27-.37-1.6-1.51-1.42a9.73,9.73,0,0,1-1.08,0c-.43,0-.59-.19-.59-.59V59.81c0-.81.7-.62,1.12-.62,2-.06,2,0,2.06-2.16,0-1.18-.53-2.7.22-3.42s2.28-.06,3.45-.23c1.51-.23,1.94.41,1.71,1.78a6.17,6.17,0,0,0,0,.86c0,1-.27,2.21.21,2.9s1.77.2,2.7.22c.67,0,1,.2.91.89v.15c.11,2.62.11,2.69-2.53,2.61-1.08,0-1.34.33-1.31,1.35.08,2.72,0,5.4,0,8.13,0,1.9.4,2.37,2.27,2.22,1.42-.12,1.61.43,1.57,1.64-.08,2.68,0,2.67-2.81,2.69a12.7,12.7,0,0,1-3.25-.3,3.87,3.87,0,0,1-3.16-4C191.78,72.76,191.8,71,191.8,69.25Z" transform="translate(-4.51 -5.18)"/>
    <path id="Path_19" data-name="Path 19" class="cls-2" d="M181.53,65.27V53.13c0-.94.19-1.4,1.25-1.31a20.57,20.57,0,0,0,3.14,0c.93-.07,1.08.33,1.08,1.16V77.53c0,.94-.31,1.13-1.14,1.08-1.39-.08-3.17.43-4-.25s-.26-2.58-.29-4C181.5,71.37,181.53,68.32,181.53,65.27Z" transform="translate(-4.51 -5.18)"/>
    <path id="Path_20" data-name="Path 20" class="cls-2" d="M201.66,31.39a7.29,7.29,0,0,1,5.4-3.62c1.61-.19,1.84,0,1.84,1.58v.29c0,1,.31,2.16-.14,2.93s-1.75.15-2.67.25c-2.47.25-4.15,2.16-4.27,5s-.11,5.7-.06,8.55c0,1.09-.32,1.33-1.3,1.25-1.32-.12-3,.54-3.86-.25s-.23-2.52-.25-3.83V29.48c0-.88.16-1.37,1.15-1.19a4.21,4.21,0,0,0,.71,0c1.08,0,2.3-.3,3.07.17S201.34,30.29,201.66,31.39Z" transform="translate(-4.51 -5.18)"/>
    <path id="Path_21" data-name="Path 21" class="cls-2" d="M216.47,38v8.55c0,.85-.21,1.2-1.08,1.13a29.36,29.36,0,0,0-3.25,0c-.75,0-1-.25-1-1V29.17c0-.69.24-.91.92-.88,1.42.06,3.24-.45,4.16.23s.24,2.57.28,3.93C216.5,34.33,216.47,36.14,216.47,38Z" transform="translate(-4.51 -5.18)"/>
    <path id="Path_22" data-name="Path 22" class="cls-2" d="M213.79,25.39c-2.68,0-2.69,0-2.68-2.68,0-2.1-.15-1.77,1.83-1.8h.3c3.24,0,3.24,0,3.24,3.24,0,1-.28,1.39-1.28,1.26A11.06,11.06,0,0,0,213.79,25.39Z" transform="translate(-4.51 -5.18)"/>
    <path id="Path_23" data-name="Path 23" class="cls-3" d="M38.93,39.74a16.27,16.27,0,0,1-2-7.21,12.38,12.38,0,0,1,24.76-.33c0,.23,0,.46,0,.69v.21a19.57,19.57,0,0,1-1.81,6.36,2.56,2.56,0,0,1-1.77,1.87,1.16,1.16,0,0,1-.42-.08,24.74,24.74,0,0,0-3.88-2.35A12,12,0,0,0,41.7,40.82a2.87,2.87,0,0,1-.83.53,1,1,0,0,1-.43,0C39.77,40.93,39.07,40.6,38.93,39.74Z" transform="translate(-4.51 -5.18)"/>
    <path id="Path_24" data-name="Path 24" class="cls-4" d="M59.49,60.15A14.94,14.94,0,0,1,61.65,68a12.34,12.34,0,0,1-23.2,5.32,12.08,12.08,0,0,1,.25-12.24c.18-.33.34-.67.52-1a1.86,1.86,0,0,1,1.21-1.35,1,1,0,0,1,.43,0c1.3.68,2.32,1.78,3.74,2.3a12.42,12.42,0,0,0,13-2.25,1.36,1.36,0,0,1,.44-.11A1.63,1.63,0,0,1,59.49,60.15Z" transform="translate(-4.51 -5.18)"/>
    <path id="Path_25" data-name="Path 25" class="cls-5" d="M59.49,60.15l-1.37-1.34c-.14-.57.28-.88.55-1.25,3.54-4.9,3.56-10.1.08-15-.29-.41-.72-.77-.62-1.38l1.71-1.77c.63.08,1.08-.35,1.58-.58,4.82-2.07,9.38-1.57,13.37,1.83a11.6,11.6,0,0,1,3.77,12.78c-1.42,5-5,7.9-10.08,8.73a12.93,12.93,0,0,1-9-2.07Z" transform="translate(-4.51 -5.18)"/>
    <path id="Path_26" data-name="Path 26" class="cls-6" d="M40.4,58.89l-1.2,1.18c-3.82,2.37-7.86,3.06-12.11,1.29a12.34,12.34,0,0,1,9.5-22.7l.81.36c.5.25.91.72,1.53.72l1.43,1.4c.24.66-.23,1.08-.56,1.5a11.91,11.91,0,0,0-.1,14.63C40.05,57.75,40.57,58.18,40.4,58.89Z" transform="translate(-4.51 -5.18)"/>
    <path id="Path_39" data-name="Path 39" class="cls-2" d="M256.07,28.27c-1.42,0-2.53,0-2,2.06A8,8,0,0,0,240.33,34a13.4,13.4,0,0,0,.33,8A7.91,7.91,0,0,0,254,44.47a10.94,10.94,0,0,1-.06,3.61A3.6,3.6,0,0,1,251,51.22c-1.68.36-3.49.32-4.38-1.22-.79-1.34-1.71-1.36-2.91-1.31a15.57,15.57,0,0,1-2.16,0c-1-.09-1.08.35-.87,1.18a6,6,0,0,0,3.13,3.87,12.4,12.4,0,0,0,8.49,1c4.45-.86,6.62-3.24,6.77-7.67.19-5.18.11-10.37.14-15.55C259.24,28.29,259.23,28.34,256.07,28.27Zm-2.59,12.14a4.12,4.12,0,0,1-7.83-.49,7.78,7.78,0,0,1-.36-2.25c0-3.55,1.47-5.6,3.92-5.81a3.75,3.75,0,0,1,4,2,7.59,7.59,0,0,1,.3,6.59Z" transform="translate(-4.51 -5.18)"/>
    <path id="Path_40" data-name="Path 40" class="cls-2" d="M238,31V22c0-.87-.26-1.19-1.14-1.08a18.78,18.78,0,0,1-3,0c-1.08-.1-1.27.3-1.25,1.28.06,2.64,0,5.28,0,7.89-.37.1-.44-.1-.57-.22A9.93,9.93,0,0,0,231,29a7.91,7.91,0,0,0-10.94,2.35h0a12,12,0,0,0-1.61,8.76c.55,3.41,2.05,6.32,5.51,7.56a7.56,7.56,0,0,0,9-2.24c0,2.26,0,2.26,2,2.26a14.43,14.43,0,0,1,1.86,0c1,.11,1.28-.27,1.27-1.27C238,41.27,238,36.14,238,31Zm-5.78,10.43a3.91,3.91,0,0,1-3.53,2.64,4,4,0,0,1-4-2.11,8.59,8.59,0,0,1-.4-7.42,4.33,4.33,0,0,1,8.06.18,10.26,10.26,0,0,1-.09,6.7Z" transform="translate(-4.51 -5.18)"/>
    <path id="Path_41" data-name="Path 41" class="cls-2" d="M178.92,74.09V64.68c0-3.14-1.29-4.72-4.22-5.47a16.05,16.05,0,0,0-8.48,0,6.29,6.29,0,0,0-4.88,4.86c-.18.88-.07,1.24.9,1.19h3.44c.64,0,.86-.2,1.08-.79A3.43,3.43,0,0,1,167,64a4,4,0,0,1,5.59-1.08,2.14,2.14,0,0,1,.72,1.08c.51,1.5-.17,2.5-2,2.89-2.24.49-4.55.45-6.74,1.15a5.14,5.14,0,0,0-4,5.53,5.25,5.25,0,0,0,4.32,5.33,9.79,9.79,0,0,0,8.74-1.82c.42.59,0,1.67,1.25,1.6,1.47-.06,2.94,0,4.63,0a13.33,13.33,0,0,1-.62-4.57Zm-5.4-3c0,3.92-2.75,4.78-5.8,4.18a2,2,0,0,1-1.61-1.63,2.41,2.41,0,0,1,.87-2.54,5.63,5.63,0,0,1,2.38-.88,15.32,15.32,0,0,0,4.16-1Z" transform="translate(-4.51 -5.18)"/>
    <path id="Path_42" data-name="Path 42" class="cls-2" d="M154.87,42.06V33.5a4.7,4.7,0,0,0-3.6-5,14.85,14.85,0,0,0-10.08.17A5.88,5.88,0,0,0,137.36,33c-.26,1-.22,1.52,1.08,1.4a18.78,18.78,0,0,1,3,0h.06a1.16,1.16,0,0,0,1.34-.93c.69-2.06,4.55-2.78,6-1.21a2.13,2.13,0,0,1,.56,1.08c.3,1.51-.48,2.33-2.57,2.68a42.37,42.37,0,0,0-6.32,1.08,5.18,5.18,0,0,0-3.94,5.81A5.41,5.41,0,0,0,141.31,48a10,10,0,0,0,8.32-1.93c.41.56,0,1.58,1.08,1.59h4.82a15.34,15.34,0,0,1-.67-5.63Zm-5.4-1.77c0,3.24-2.6,5.07-5.78,4.06A2.07,2.07,0,0,1,142,42.47,2.35,2.35,0,0,1,143.26,40a7.1,7.1,0,0,1,2.58-.75,13.77,13.77,0,0,0,3.63-.83Z" transform="translate(-4.51 -5.18)"/>
    <path id="Path_43" data-name="Path 43" class="cls-2" d="M182.23,39.26c3.8.09,7.62,0,11.43,0,.55,0,1.15.14,1.17-.79.13-7.56-5.4-12.32-12.52-10.31-4.86,1.37-7.64,6.32-6.75,11.73a9.43,9.43,0,0,0,10.1,8.3c4.57-.2,7.78-2.58,8.64-6.56h-2.43a3.55,3.55,0,0,0-3.09,1.08,4.52,4.52,0,0,1-2,1.19,4.66,4.66,0,0,1-5.77-3.08C180.76,39.74,180.83,39.24,182.23,39.26ZM181,35a4.25,4.25,0,0,1,4.2-3.24,4,4,0,0,1,4,3.14c.15.67,0,1-.73.94h-6.81c-.75.06-.82-.25-.7-.84Z" transform="translate(-4.51 -5.18)"/>
    <path id="Path_44" data-name="Path 44" class="cls-2" d="M147.16,70.23c1.9.13,3.81,0,5.72,0h6c.55,0,1,0,1-.77.09-8.78-6.71-12.67-13.57-10-4.78,1.88-7,7.66-5.28,13.13A8.77,8.77,0,0,0,148.87,79c3.7.44,7.06-.32,9.33-3.62.55-.81,1.44-1.83,1.08-2.64-.29-.64-1.64-.13-2.52-.22A2.84,2.84,0,0,0,154,73.6c-1.24,1.5-3.11,1.69-5,1.19a4,4,0,0,1-2.9-3.24C145.83,70.74,145.85,70.14,147.16,70.23Zm-1.08-4.41a4.14,4.14,0,0,1,4.43-3A3.76,3.76,0,0,1,154.3,66c.11.57.07.88-.65.86-1.13-.05-2.28,0-3.42,0h-3.42c-.91,0-.94-.41-.73-1.08Z" transform="translate(-4.51 -5.18)"/>
    <path id="Path_45" data-name="Path 45" class="cls-2" d="M280.3,37.13c-.85-8.05-8.36-12-14.9-7.87-4.14,2.64-5.69,8.55-3.52,13.46,1.95,4.39,7,6.48,12,5.09,3.15-.88,5-3,6-6.15h-2.74a2.93,2.93,0,0,0-2.81,1.08c-1.19,1.49-3.87,1.77-5.68.92a4,4,0,0,1-2.17-4.23c.39-.42.9-.21,1.36-.21h11.27c.84,0,1.25-.19,1.08-1.08a6.83,6.83,0,0,1,0-1Zm-6.24-1.27h-6.82c-.61,0-.85-.14-.72-.83a4.25,4.25,0,0,1,4.32-3.24,4,4,0,0,1,4,3.38c0,.67-.3.71-.79.7Z" transform="translate(-4.51 -5.18)"/>
    <path id="Path_34" data-name="Path 34" class="cls-7" d="M40.4,58.89a14.79,14.79,0,0,1-3.25-6.48,12.3,12.3,0,0,1,2.49-10.09c.27-.38.53-.77.77-1.18h.25a12.21,12.21,0,0,1,1.8,1.72c3,4.89,3.11,9.73-.21,14.53a3.26,3.26,0,0,1-1.54,1.44,1.2,1.2,0,0,1-.32.06Z" transform="translate(-4.51 -5.18)"/>
    <path id="Path_35" data-name="Path 35" class="cls-8" d="M58.13,41.23a12.91,12.91,0,0,1,3.64,8.58,12.27,12.27,0,0,1-3,8.23l-.62.77h-.28A3.34,3.34,0,0,1,56,57a13,13,0,0,1,0-14.1,5.8,5.8,0,0,1,1.77-1.82Z" transform="translate(-4.51 -5.18)"/>
    <path id="Path_36" data-name="Path 36" class="cls-9" d="M57.82,41.14c-.06.92-1,1.08-1.45,1.72a5.5,5.5,0,0,1-3.48,2,13.21,13.21,0,0,1-8.22-.35,7.55,7.55,0,0,1-2.61-1.66c-.57-.48-1.24-.9-1.44-1.7a12.36,12.36,0,0,1,17.2,0Z" transform="translate(-4.51 -5.18)"/>
    <path id="Path_37" data-name="Path 37" class="cls-10" d="M56.36,57.22l1.48,1.64c-3.8,4.19-11.35,4.68-16,1.08-.4-.34-.79-.7-1.16-1.08.15-.67.85-.87,1.17-1.39,2.86-3.17,9.2-3.59,13.4-1.31a3.19,3.19,0,0,1,1.13,1.06Z" transform="translate(-4.51 -5.18)"/>
    <path id="Path_38" data-name="Path 38" class="cls-11" d="M56.36,57.22c-4.9-3-9.73-2.81-14.53.25A14.91,14.91,0,0,0,44.1,51.9a12.38,12.38,0,0,0-1.46-7.84l-.58-1.13a16.71,16.71,0,0,0,6.27,2,12,12,0,0,0,7.4-1.73,5.46,5.46,0,0,1,.64-.32,5,5,0,0,1-.78,1.8A12.12,12.12,0,0,0,56,56.38a1.51,1.51,0,0,1,.33.84Z" transform="translate(-4.51 -5.18)"/>
  </g>
</svg>
