<svg xmlns="http://www.w3.org/2000/svg" width="275.799" height="89.642" viewBox="0 0 275.799 89.642">
  <g id="lakeridge_logo" transform="translate(0 0)">
    <g id="Group_11" data-name="Group 11">
      <path id="Path_5" data-name="Path 5" d="M43.258,82.8a.714.714,0,0,1,0,.216H39.81v-.227a2.951,2.951,0,0,1,3.448.011Z" transform="translate(3.2 6.623)" fill="#cfd1d1"/>
      <path id="Path_6" data-name="Path 6" d="M46.478,89.455H43.019A44.729,44.729,0,1,1,84.668,24.561a44.224,44.224,0,0,1,4.525,15.162,44.729,44.729,0,0,1-37.17,49.17C50.186,89.163,48.337,89.358,46.478,89.455Z" transform="translate(-0.02 -0.03)" fill="#444a4d"/>
      <path id="Path_7" data-name="Path 7" d="M126.26,56.574V68.854c0,.832-.151,1.2-1.081,1.081a26.677,26.677,0,0,0-3.718,0c-.951,0-1.221-.249-1.2-1.189V59.612c0-.93-.227-1.211-1.178-1.189q-4.216.1-8.442,0c-.9,0-1.081.249-1.081,1.081v9.285c0,.9-.27,1.157-1.135,1.081-1.286-.065-2.583,0-3.87,0-.692,0-1.005-.108-.994-.919V43.971c0-.7.238-.9.908-.876,1.33,0,2.67.065,4,0,.951,0,1.081.368,1.081,1.189v8c0,.854.205,1.157,1.081,1.081h8.583c.843,0,1.081-.292,1.081-1.081V44.435c0-1.178.368-1.481,1.448-1.394a20.98,20.98,0,0,0,3.243,0c.984-.076,1.286.238,1.275,1.254C126.227,48.489,126.26,52.532,126.26,56.574Z" transform="translate(8.359 3.45)" fill="#444a4d"/>
      <path id="Path_10" data-name="Path 10" d="M188.866,53.225a7.458,7.458,0,0,1,8.431-2.843c2.7.692,4.183,2.529,4.324,5.826.173,4.324.065,8.647.1,12.971,0,.659-.281.789-.854.778a30.271,30.271,0,0,0-3.243,0c-.984.065-1.308-.238-1.286-1.254.065-3.091,0-6.183,0-9.274a17.815,17.815,0,0,0-.065-1.859c-.227-2.162-1.232-3.156-3.091-3.243-2.27-.086-3.578.886-4.043,2.973a22.613,22.613,0,0,0-.238,4.832q0,3.437,0,6.853c0,.757-.227,1.016-.973.951-1.448-.13-3.308.605-4.259-.313s-.216-2.627-.216-3.989V44.513c0-1.081.259-1.459,1.34-1.362a15.847,15.847,0,0,0,2.864,0c.984-.076,1.319.238,1.286,1.254C188.812,47.226,188.866,50.026,188.866,53.225Z" transform="translate(14.803 3.459)" fill="#444a4d"/>
      <path id="Path_11" data-name="Path 11" d="M147.255,28.067c1.913-1.719,3.978-3.545,6-5.4a2.043,2.043,0,0,1,1.6-.7c1.7.054,3.4,0,5.178,0-1.6,1.665-3.081,3.3-4.648,4.821-2.367,2.27-2.389,2.238-.605,4.918l6.388,9.62h-6.183c-.595,0-.724-.54-.962-.93-1.557-2.5-3.1-5-4.637-7.5a3.729,3.729,0,0,0-2.162,4.194,23.19,23.19,0,0,1,0,3.243c0,.724-.195,1.081-.962.994a34.181,34.181,0,0,0-3.437,0c-.757,0-.984-.249-.984-.984V15.474c0-.724.216-1.016.984-.984a27.77,27.77,0,0,0,3.243,0c.908-.054,1.081.27,1.081,1.081C147.234,19.971,147.255,24.23,147.255,28.067Z" transform="translate(11.457 1.14)" fill="#444a4d"/>
      <path id="Path_17" data-name="Path 17" d="M103.64,27.878v-12c0-.93.141-1.416,1.221-1.3,1.546.173,3.621-.67,4.507.346s.249,2.9.249,4.41V34.9c0,1.081.205,1.459,1.384,1.438,3.481-.086,6.961,0,10.442-.054.951,0,1.265.27,1.189,1.2-.1,1.232.368,2.821-.249,3.589s-2.324.259-3.545.27H105.1c-1.243,0-1.47-.378-1.448-1.513C103.683,35.866,103.64,31.866,103.64,27.878Z" transform="translate(8.366 1.135)" fill="#444a4d"/>
      <path id="Path_18" data-name="Path 18" d="M173.538,60.5c0-1.665-.1-3.34,0-4.994.1-1.265-.368-1.6-1.513-1.416a9.945,9.945,0,0,1-1.081,0c-.432,0-.584-.195-.584-.595V51.06c0-.811.692-.616,1.113-.616,2.054-.065,2.021-.054,2.065-2.162,0-1.178-.53-2.7.216-3.427s2.281-.054,3.448-.227c1.513-.227,1.946.411,1.719,1.784a5.635,5.635,0,0,0,0,.854c0,.994-.27,2.216.205,2.908s1.773.195,2.7.216c.67,0,.994.195.908.886v.151c.108,2.627.108,2.692-2.529,2.616-1.081,0-1.34.324-1.308,1.351.076,2.713,0,5.4,0,8.129,0,1.892.4,2.367,2.27,2.216,1.416-.119,1.611.432,1.567,1.643-.076,2.681,0,2.67-2.81,2.692a12.679,12.679,0,0,1-3.243-.3,3.87,3.87,0,0,1-3.167-4.021C173.516,64.01,173.538,62.248,173.538,60.5Z" transform="translate(13.765 3.57)" fill="#444a4d"/>
      <path id="Path_19" data-name="Path 19" d="M163.812,56.628V44.489c0-.94.184-1.405,1.243-1.308a21.823,21.823,0,0,0,3.146,0c.93-.076,1.081.324,1.081,1.157V68.885c0,.94-.313,1.135-1.146,1.081-1.384-.076-3.167.432-4.021-.249s-.259-2.583-.281-3.945C163.78,62.724,163.812,59.676,163.812,56.628Z" transform="translate(13.222 3.461)" fill="#444a4d"/>
      <path id="Path_20" data-name="Path 20" d="M182.831,24.556a7.285,7.285,0,0,1,5.4-3.621c1.611-.195,1.838,0,1.838,1.578V22.8c0,.994.313,2.162-.141,2.929s-1.751.151-2.67.249c-2.465.259-4.151,2.162-4.27,5.059s-.108,5.7-.054,8.55c0,1.081-.324,1.33-1.3,1.243-1.319-.119-3.037.54-3.859-.249s-.238-2.519-.249-3.826V22.643c0-.876.151-1.373,1.146-1.189a3.935,3.935,0,0,0,.713,0c1.081,0,2.3-.3,3.07.173S182.507,23.453,182.831,24.556Z" transform="translate(14.33 1.657)" fill="#444a4d"/>
      <path id="Path_21" data-name="Path 21" d="M196.517,31.127v8.55c0,.854-.205,1.2-1.081,1.135a27.767,27.767,0,0,0-3.243,0c-.757,0-.984-.249-.984-.984V22.3c0-.692.238-.908.919-.886,1.416.065,3.243-.443,4.162.238s.238,2.562.281,3.924C196.55,27.462,196.517,29.267,196.517,31.127Z" transform="translate(15.453 1.691)" fill="#444a4d"/>
      <path id="Path_22" data-name="Path 22" d="M193.841,19.066c-2.681,0-2.692,0-2.681-2.681,0-2.108-.151-1.773,1.838-1.805h.292c3.243,0,3.243,0,3.243,3.243,0,1.005-.281,1.384-1.275,1.254A10.474,10.474,0,0,0,193.841,19.066Z" transform="translate(15.448 1.148)" fill="#444a4d"/>
      <path id="Path_23" data-name="Path 23" d="M32.021,33.477A16.214,16.214,0,0,1,30,26.267a12.377,12.377,0,1,1,24.742.357v.216A19.781,19.781,0,0,1,52.937,33.2a2.562,2.562,0,0,1-1.773,1.87,1.081,1.081,0,0,1-.422-.086,24.861,24.861,0,0,0-3.881-2.346A11.987,11.987,0,0,0,34.8,34.558a3.243,3.243,0,0,1-.832.53.973.973,0,0,1-.432,0C32.865,34.666,32.162,34.342,32.021,33.477Z" transform="translate(2.406 1.081)" fill="#c6c7c9"/>
      <path id="Path_24" data-name="Path 24" d="M52.58,50.992a14.863,14.863,0,0,1,2.162,7.848,12.344,12.344,0,0,1-23.2,5.318,12.117,12.117,0,0,1,.249-12.247c.184-.324.346-.67.519-1.005a1.881,1.881,0,0,1,1.211-1.351.973.973,0,0,1,.432,0c1.3.681,2.324,1.784,3.74,2.3a12.441,12.441,0,0,0,13.025-2.248,1.081,1.081,0,0,1,.432-.108A1.611,1.611,0,0,1,52.58,50.992Z" transform="translate(2.407 3.974)" fill="#14a8e2"/>
      <path id="Path_25" data-name="Path 25" d="M50.994,52.564l-1.362-1.34c-.141-.562.281-.876.551-1.243,3.535-4.9,3.556-10.1.076-14.949-.292-.411-.724-.778-.616-1.384l1.708-1.773c.627.086,1.081-.346,1.578-.573,4.821-2.075,9.382-1.578,13.371,1.827a11.609,11.609,0,0,1,3.772,12.777c-1.427,4.972-4.972,7.9-10.085,8.734a12.971,12.971,0,0,1-8.993-2.075Z" transform="translate(3.993 2.401)" fill="#ebe900"/>
      <path id="Path_26" data-name="Path 26" d="M34.726,51.281l-1.2,1.178c-3.816,2.367-7.858,3.059-12.106,1.286a12.344,12.344,0,0,1,9.5-22.7l.811.368c.5.249.908.713,1.524.713l1.438,1.405c.238.659-.238,1.081-.562,1.5a11.89,11.89,0,0,0-.1,14.625C34.38,50.135,34.9,50.567,34.726,51.281Z" transform="translate(1.172 2.431)" fill="#f89400"/>
      <path id="Path_39" data-name="Path 39" d="M233.973,21.43c-1.427,0-2.529,0-2.011,2.065a8.02,8.02,0,0,0-13.728,3.654,13.382,13.382,0,0,0,.324,8,7.912,7.912,0,0,0,13.3,2.486,11.242,11.242,0,0,1-.054,3.61,3.61,3.61,0,0,1-2.919,3.135c-1.675.357-3.481.324-4.378-1.221-.789-1.34-1.708-1.362-2.908-1.308a15.717,15.717,0,0,1-2.162,0c-1.005-.086-1.081.346-.865,1.178A5.967,5.967,0,0,0,221.7,46.9a12.4,12.4,0,0,0,8.485.973c4.453-.865,6.626-3.243,6.777-7.675.184-5.178.108-10.366.141-15.544C237.14,21.451,237.129,21.505,233.973,21.43Zm-2.594,12.139a4.118,4.118,0,0,1-7.826-.486,7.891,7.891,0,0,1-.368-2.248c0-3.556,1.47-5.6,3.924-5.815a3.74,3.74,0,0,1,3.967,1.956,7.566,7.566,0,0,1,.3,6.594Z" transform="translate(17.602 1.659)" fill="#444a4d"/>
      <path id="Path_40" data-name="Path 40" d="M217.565,24.675V15.692c0-.876-.259-1.189-1.146-1.081a19.781,19.781,0,0,1-2.994,0c-1.081-.1-1.275.3-1.254,1.275.065,2.648,0,5.286,0,7.891-.368.108-.443-.1-.573-.216a9.468,9.468,0,0,0-1.081-.865,7.912,7.912,0,0,0-10.939,2.356,11.987,11.987,0,0,0-1.611,8.756c.551,3.416,2.054,6.323,5.513,7.567a7.567,7.567,0,0,0,8.972-2.248c0,2.259,0,2.259,1.978,2.259a15.252,15.252,0,0,1,1.859,0c1.005.119,1.286-.27,1.275-1.265C217.543,34.944,217.565,29.809,217.565,24.675ZM211.782,35.1a3.9,3.9,0,0,1-3.535,2.637,3.945,3.945,0,0,1-4.032-2.108,8.55,8.55,0,0,1-.4-7.415,4.324,4.324,0,0,1,8.053.173,10.28,10.28,0,0,1-.086,6.7Z" transform="translate(15.98 1.149)" fill="#444a4d"/>
      <path id="Path_41" data-name="Path 41" d="M162.754,64.937V55.522c0-3.135-1.286-4.713-4.216-5.469a16.138,16.138,0,0,0-8.485,0,6.291,6.291,0,0,0-4.875,4.864c-.184.876-.076,1.243.9,1.189h3.437c.638,0,.865-.195,1.081-.789a2.712,2.712,0,0,1,.281-.486,4.032,4.032,0,0,1,5.588-1.081,2.162,2.162,0,0,1,.724,1.081c.508,1.492-.173,2.5-2.021,2.886-2.238.486-4.551.454-6.745,1.146a5.145,5.145,0,0,0-3.989,5.534,5.242,5.242,0,0,0,4.324,5.329,9.782,9.782,0,0,0,8.734-1.816c.422.584,0,1.665,1.254,1.6,1.47-.065,2.94,0,4.626,0a13.533,13.533,0,0,1-.616-4.572Zm-5.4-2.962c0,3.924-2.746,4.778-5.794,4.183a1.967,1.967,0,0,1-1.611-1.632,2.421,2.421,0,0,1,.865-2.54,5.567,5.567,0,0,1,2.378-.876,15.63,15.63,0,0,0,4.162-.951Z" transform="translate(11.665 3.973)" fill="#444a4d"/>
      <path id="Path_42" data-name="Path 42" d="M140.5,35.227V26.666a4.7,4.7,0,0,0-3.6-5.026,14.863,14.863,0,0,0-10.074.173,5.913,5.913,0,0,0-3.837,4.324c-.259,1.005-.216,1.513,1.081,1.394a19.921,19.921,0,0,1,3,0h.065a1.157,1.157,0,0,0,1.34-.93c.692-2.054,4.551-2.778,6.053-1.211a2.162,2.162,0,0,1,.551,1.081c.3,1.513-.476,2.335-2.562,2.681a43.379,43.379,0,0,0-6.323,1.081,5.188,5.188,0,0,0-3.945,5.815,5.4,5.4,0,0,0,4.691,5.145,10.053,10.053,0,0,0,8.323-1.924c.411.551,0,1.578,1.081,1.589h4.821a15.317,15.317,0,0,1-.67-5.632Zm-5.4-1.773c0,3.243-2.594,5.07-5.772,4.064a2.075,2.075,0,0,1-1.665-1.881,2.346,2.346,0,0,1,1.232-2.508,6.994,6.994,0,0,1,2.583-.757,13.457,13.457,0,0,0,3.621-.832Z" transform="translate(9.868 1.655)" fill="#444a4d"/>
      <path id="Path_43" data-name="Path 43" d="M164.952,32.426c3.8.086,7.621,0,11.436,0,.551,0,1.146.141,1.167-.789.13-7.566-5.4-12.323-12.517-10.312-4.864,1.373-7.642,6.323-6.756,11.728a9.437,9.437,0,0,0,10.1,8.3c4.572-.195,7.783-2.583,8.647-6.561H174.6a3.556,3.556,0,0,0-3.091,1.081,4.551,4.551,0,0,1-1.967,1.189,4.648,4.648,0,0,1-5.761-3.081C163.482,32.9,163.557,32.4,164.952,32.426Zm-1.265-4.27a4.248,4.248,0,0,1,4.2-3.243,3.989,3.989,0,0,1,4.043,3.145c.151.67,0,.962-.735.94h-6.81c-.746.054-.822-.259-.7-.843Z" transform="translate(12.775 1.656)" fill="#444a4d"/>
      <path id="Path_44" data-name="Path 44" d="M132.5,61.078c1.9.13,3.816,0,5.718,0h6.021c.551,0,1.016,0,1.016-.767.086-8.788-6.713-12.679-13.576-9.977C126.9,52.214,124.653,58,126.4,63.467a8.766,8.766,0,0,0,7.815,6.377c3.7.443,7.058-.313,9.328-3.621.551-.811,1.438-1.827,1.081-2.637-.292-.638-1.643-.13-2.519-.216a2.832,2.832,0,0,0-2.789,1.081c-1.243,1.5-3.113,1.686-5,1.189a3.956,3.956,0,0,1-2.9-3.243C131.171,61.586,131.193,60.991,132.5,61.078Zm-1.081-4.41a4.14,4.14,0,0,1,4.432-3.027,3.772,3.772,0,0,1,3.794,3.243c.108.573.065.886-.649.865-1.135-.054-2.281,0-3.427,0h-3.416c-.908,0-.94-.411-.735-1.081Z" transform="translate(10.16 3.973)" fill="#444a4d"/>
      <path id="Path_45" data-name="Path 45" d="M256.622,30.3c-.843-8.053-8.356-12.02-14.9-7.869-4.14,2.637-5.686,8.55-3.513,13.458,1.946,4.389,6.972,6.486,12.031,5.091,3.156-.876,4.994-3,6.032-6.15h-2.735a2.929,2.929,0,0,0-2.81,1.081c-1.189,1.492-3.87,1.773-5.686.919a4.021,4.021,0,0,1-2.162-4.226c.389-.422.9-.216,1.351-.216H255.5c.843,0,1.254-.184,1.081-1.081a7.483,7.483,0,0,1,.043-1.005Zm-6.237-1.265h-6.821c-.605,0-.854-.141-.724-.832a4.259,4.259,0,0,1,4.324-3.243,4.021,4.021,0,0,1,4.01,3.383C251.206,29.007,250.871,29.05,250.385,29.039Z" transform="translate(19.177 1.649)" fill="#444a4d"/>
      <path id="Path_34" data-name="Path 34" d="M33.49,51.049a14.766,14.766,0,0,1-3.243-6.486,12.279,12.279,0,0,1,2.486-10.085A13.729,13.729,0,0,0,33.5,33.3h.259a12.3,12.3,0,0,1,1.794,1.719c3.016,4.886,3.113,9.728-.205,14.528A3.243,3.243,0,0,1,33.8,50.984a1.081,1.081,0,0,1-.313.065Z" transform="translate(2.407 2.663)" fill="#cf841d"/>
      <path id="Path_35" data-name="Path 35" d="M49.955,33.389a12.874,12.874,0,0,1,3.632,8.583A12.279,12.279,0,0,1,50.614,50.2l-.627.767h-.281a3.362,3.362,0,0,1-1.87-1.773,12.971,12.971,0,0,1,0-14.106,5.924,5.924,0,0,1,1.773-1.816Z" transform="translate(3.681 2.66)" fill="#7dc336"/>
      <path id="Path_36" data-name="Path 36" d="M50.638,33.56c-.065.919-1.016,1.081-1.448,1.719A5.578,5.578,0,0,1,45.709,37.3a13.22,13.22,0,0,1-8.226-.357,7.566,7.566,0,0,1-2.605-1.654c-.573-.486-1.243-.9-1.438-1.7a12.355,12.355,0,0,1,17.2-.032Z" transform="translate(2.685 2.403)" fill="#8eb520"/>
      <path id="Path_37" data-name="Path 37" d="M49.176,48.357,50.657,50c-3.8,4.194-11.35,4.68-16.019,1.081A15.366,15.366,0,0,1,33.47,50c.151-.67.854-.865,1.178-1.394,2.854-3.167,9.2-3.589,13.4-1.308a3.243,3.243,0,0,1,1.124,1.059Z" transform="translate(2.687 3.679)" fill="#13ab45"/>
      <path id="Path_38" data-name="Path 38" d="M49.088,49.241c-4.9-2.962-9.728-2.81-14.528.249a14.863,14.863,0,0,0,2.27-5.567,12.4,12.4,0,0,0-1.459-7.837l-.584-1.135a16.722,16.722,0,0,0,6.269,2.043,12.031,12.031,0,0,0,7.4-1.729,7.068,7.068,0,0,1,.638-.324,4.983,4.983,0,0,1-.778,1.805A12.106,12.106,0,0,0,48.753,48.4a1.535,1.535,0,0,1,.335.843Z" transform="translate(2.775 2.795)" fill="#b0d31c"/>
    </g>
  </g>
</svg>
