<svg id="Layer_5" data-name="Layer 5" xmlns="http://www.w3.org/2000/svg" viewBox="0 0 275.79 89.64">
  <defs>
    <style>
      .cls-1 {
        fill: #cfd1d1;
      }

      .cls-2 {
        fill: #444a4d;
      }

      .cls-3 {
        fill: #c6c7c9;
      }

      .cls-4 {
        fill: #14a8e2;
      }

      .cls-5 {
        fill: #ebe900;
      }

      .cls-6 {
        fill: #f89400;
      }

      .cls-7 {
        fill: #cf841d;
      }

      .cls-8 {
        fill: #7dc336;
      }

      .cls-9 {
        fill: #8eb520;
      }

      .cls-10 {
        fill: #13ab45;
      }

      .cls-11 {
        fill: #b0d31c;
      }
    </style>
  </defs>
  <title>lakeridge_logo_1</title>
  <path id="Path_5" data-name="Path 5" class="cls-1" d="M9.82-10.11a.81.81,0,0,1,0,.22H6.37v-.23A2.94,2.94,0,0,1,9.82-10.11Z" transform="translate(36.63 99.53)"/>
  <path id="Path_6" data-name="Path 6" class="cls-2" d="M9.82-10.11H6.36a44.73,44.73,0,0,1-43-46.43,44.74,44.74,0,0,1,46.44-43A44.72,44.72,0,0,1,48-75a44,44,0,0,1,4.52,15.16A44.73,44.73,0,0,1,15.36-10.67Q12.61-10.26,9.82-10.11Z" transform="translate(36.63 99.53)"/>
  <path id="Path_7" data-name="Path 7" class="cls-2" d="M98-39.51v12.28c0,.83-.15,1.2-1.08,1.08a25.66,25.66,0,0,0-3.72,0c-1,0-1.22-.25-1.2-1.19v-9.13c0-.93-.23-1.21-1.18-1.19q-4.22.1-8.44,0c-.9,0-1.08.25-1.08,1.08v9.29c0,.9-.27,1.15-1.14,1.08-1.28-.07-2.58,0-3.87,0-.69,0-1-.11-1-.92v-25c0-.7.24-.9.91-.88,1.33,0,2.67.07,4,0,1,0,1.08.37,1.08,1.19v8c0,.85.2,1.16,1.08,1.08h8.58c.85,0,1.08-.29,1.08-1.08v-7.85c0-1.18.37-1.48,1.45-1.39a22,22,0,0,0,3.25,0c1-.08,1.28.24,1.27,1.25C98-47.59,98-43.55,98-39.51Z" transform="translate(36.63 99.53)"/>
  <path id="Path_10" data-name="Path 10" class="cls-2" d="M167-42.85a7.45,7.45,0,0,1,8.43-2.84c2.7.69,4.18,2.53,4.32,5.82.18,4.33.07,8.65.1,13,0,.66-.28.79-.85.78a29.18,29.18,0,0,0-3.24,0c-1,.07-1.31-.24-1.29-1.25.07-3.09,0-6.18,0-9.28,0-.62,0-1.24-.06-1.85-.23-2.17-1.24-3.16-3.09-3.25-2.27-.08-3.58.89-4,3a22.92,22.92,0,0,0-.24,4.83v6.85c0,.76-.22,1-1,.95-1.45-.13-3.31.61-4.26-.31s-.21-2.63-.21-4V-51.56c0-1.08.26-1.46,1.34-1.36a17.07,17.07,0,0,0,2.86,0c1-.08,1.32.23,1.29,1.25C167-48.85,167-46,167-42.85Z" transform="translate(36.63 99.53)"/>
  <path id="Path_11" data-name="Path 11" class="cls-2" d="M122.07-70.33c1.92-1.72,4-3.54,6-5.4a2.07,2.07,0,0,1,1.6-.7c1.7.06,3.4,0,5.18,0-1.6,1.67-3.08,3.3-4.65,4.82-2.36,2.27-2.39,2.24-.6,4.92L136-57.07H129.8c-.59,0-.72-.54-1-.93q-2.34-3.75-4.64-7.5A3.74,3.74,0,0,0,122-61.3a21.9,21.9,0,0,1,0,3.24c0,.72-.19,1.08-1,1-1.15,0-2.29,0-3.44,0-.75,0-1-.25-1-1V-82.92c0-.72.21-1,1-1a29.36,29.36,0,0,0,3.25,0c.9-.06,1.08.27,1.08,1.08C122.05-78.42,122.07-74.16,122.07-70.33Z" transform="translate(36.63 99.53)"/>
  <path id="Path_17" data-name="Path 17" class="cls-2" d="M75.37-70.52v-12c0-.93.14-1.42,1.22-1.3,1.54.17,3.62-.67,4.5.35s.25,2.9.25,4.41V-63.5c0,1.08.21,1.46,1.39,1.44,3.48-.09,7,0,10.44,0,1,0,1.26.27,1.19,1.2-.1,1.23.37,2.82-.25,3.58s-2.32.26-3.55.27H76.83c-1.25,0-1.47-.37-1.45-1.51C75.41-62.53,75.37-66.53,75.37-70.52Z" transform="translate(36.63 99.53)"/>
  <path id="Path_18" data-name="Path 18" class="cls-2" d="M150.66-35.46c0-1.67-.1-3.34,0-5,.1-1.26-.36-1.6-1.51-1.41a9.73,9.73,0,0,1-1.08,0c-.43,0-.58-.2-.58-.6V-44.9c0-.81.69-.62,1.11-.62,2.05-.06,2,0,2.06-2.16,0-1.18-.53-2.7.22-3.43s2.28,0,3.45-.23c1.51-.22,1.94.42,1.72,1.79a4,4,0,0,0,0,.85c0,1-.27,2.22.2,2.91s1.77.2,2.7.22c.67,0,1,.19.91.88v.15c.11,2.63.11,2.7-2.53,2.62-1.08,0-1.34.32-1.31,1.35.08,2.71,0,5.4,0,8.13,0,1.89.4,2.37,2.27,2.22,1.42-.12,1.61.43,1.57,1.64-.08,2.68,0,2.67-2.81,2.69a12.59,12.59,0,0,1-3.24-.3,3.86,3.86,0,0,1-3.17-4C150.64-31.95,150.66-33.72,150.66-35.46Z" transform="translate(36.63 99.53)"/>
  <path id="Path_19" data-name="Path 19" class="cls-2" d="M140.39-39.44V-51.58c0-.94.19-1.41,1.25-1.31a23.5,23.5,0,0,0,3.14,0c.93-.08,1.08.32,1.08,1.16v24.54c0,.94-.31,1.14-1.14,1.08-1.39-.07-3.17.44-4-.25s-.26-2.58-.28-3.94C140.36-33.35,140.39-36.4,140.39-39.44Z" transform="translate(36.63 99.53)"/>
  <path id="Path_20" data-name="Path 20" class="cls-2" d="M160.52-73.32a7.27,7.27,0,0,1,5.4-3.62c1.61-.2,1.84,0,1.84,1.58v.28c0,1,.31,2.17-.14,2.93s-1.75.15-2.67.25c-2.47.26-4.15,2.16-4.27,5.06s-.11,5.7-.06,8.55c0,1.08-.32,1.33-1.3,1.24-1.31-.12-3,.54-3.85-.25s-.24-2.51-.25-3.82V-75.23c0-.88.15-1.38,1.14-1.19a4.33,4.33,0,0,0,.72,0c1.08,0,2.3-.3,3.07.17S160.2-74.42,160.52-73.32Z" transform="translate(36.63 99.53)"/>
  <path id="Path_21" data-name="Path 21" class="cls-2" d="M175.33-66.72v8.55c0,.86-.2,1.2-1.08,1.14A29.18,29.18,0,0,0,171-57c-.76,0-1-.25-1-1V-75.54c0-.69.24-.91.92-.89,1.42.07,3.24-.44,4.16.24s.24,2.56.28,3.92C175.36-70.38,175.33-68.58,175.33-66.72Z" transform="translate(36.63 99.53)"/>
  <path id="Path_22" data-name="Path 22" class="cls-2" d="M172.65-79.32c-2.68,0-2.69,0-2.68-2.68,0-2.11-.15-1.77,1.84-1.81h.29c3.24,0,3.24,0,3.24,3.25,0,1-.28,1.38-1.27,1.25A11.23,11.23,0,0,0,172.65-79.32Z" transform="translate(36.63 99.53)"/>
  <path id="Path_23" data-name="Path 23" class="cls-3" d="M-2.21-65a16.13,16.13,0,0,1-2-7.21A12.37,12.37,0,0,1,8-84.72,12.38,12.38,0,0,1,20.52-72.51c0,.23,0,.45,0,.68v.22a19.72,19.72,0,0,1-1.81,6.36,2.58,2.58,0,0,1-1.77,1.87,1,1,0,0,1-.42-.09,24.68,24.68,0,0,0-3.88-2.34A12,12,0,0,0,.57-63.89a3.62,3.62,0,0,1-.84.53,1,1,0,0,1-.43,0C-1.37-63.79-2.07-64.11-2.21-65Z" transform="translate(36.63 99.53)"/>
  <path id="Path_24" data-name="Path 24" class="cls-4" d="M18.35-44.57a15,15,0,0,1,2.16,7.85A12.36,12.36,0,0,1,7.64-24.92,12.35,12.35,0,0,1-2.69-31.4a12.12,12.12,0,0,1,.25-12.25c.18-.32.34-.67.52-1A1.86,1.86,0,0,1-.71-46a.79.79,0,0,1,.43,0C1-45.32,2-44.22,3.46-43.7a12.46,12.46,0,0,0,13-2.25,1.05,1.05,0,0,1,.43-.11A1.62,1.62,0,0,1,18.35-44.57Z" transform="translate(36.63 99.53)"/>
  <path id="Path_25" data-name="Path 25" class="cls-5" d="M18.35-44.57,17-45.91c-.15-.56.28-.87.55-1.24,3.53-4.9,3.55-10.1.07-15-.29-.41-.72-.78-.61-1.38l1.7-1.78c.63.09,1.09-.34,1.58-.57,4.82-2.08,9.38-1.58,13.37,1.83a11.61,11.61,0,0,1,3.78,12.77c-1.43,5-5,7.9-10.09,8.74a13,13,0,0,1-9-2.08Z" transform="translate(36.63 99.53)"/>
  <path id="Path_26" data-name="Path 26" class="cls-6" d="M-.74-45.82l-1.2,1.18C-5.76-42.28-9.8-41.58-14-43.36A12.35,12.35,0,0,1-19.35-60a12.34,12.34,0,0,1,14.8-6.07l.81.37c.5.25.91.71,1.53.71l1.44,1.41c.23.66-.24,1.08-.57,1.5a11.89,11.89,0,0,0-.1,14.62C-1.09-47-.57-46.54-.74-45.82Z" transform="translate(36.63 99.53)"/>
  <path id="Path_39" data-name="Path 39" class="cls-2" d="M214.94-76.44c-1.43,0-2.53,0-2,2.06a8,8,0,0,0-11.33-.48,8,8,0,0,0-2.39,4.13,13.4,13.4,0,0,0,.32,8,7.91,7.91,0,0,0,10.19,4.62,7.88,7.88,0,0,0,3.11-2.13,11.21,11.21,0,0,1,0,3.61,3.63,3.63,0,0,1-2.92,3.14c-1.68.35-3.48.32-4.38-1.23-.79-1.34-1.71-1.36-2.91-1.3a15.57,15.57,0,0,1-2.16,0c-1-.09-1.08.34-.87,1.17A6,6,0,0,0,202.66-51a12.47,12.47,0,0,0,8.49,1c4.45-.87,6.62-3.24,6.77-7.68.19-5.17.11-10.36.15-15.54C218.1-76.42,218.09-76.37,214.94-76.44Zm-2.6,12.13A4.12,4.12,0,0,1,207-62a4.08,4.08,0,0,1-2.49-2.82,7.52,7.52,0,0,1-.37-2.25c0-3.56,1.47-5.6,3.92-5.81a3.73,3.73,0,0,1,4,1.95,7.61,7.61,0,0,1,.3,6.6Z" transform="translate(36.63 99.53)"/>
  <path id="Path_40" data-name="Path 40" class="cls-2" d="M196.91-73.71v-9c0-.88-.26-1.19-1.15-1.08a21.31,21.31,0,0,1-3,0c-1.09-.1-1.28.3-1.26,1.27.07,2.65,0,5.29,0,7.89-.37.11-.44-.1-.57-.21a8.94,8.94,0,0,0-1.08-.87,7.92,7.92,0,0,0-10.94,2.36h0a12,12,0,0,0-1.61,8.75c.55,3.42,2.05,6.33,5.51,7.57a7.55,7.55,0,0,0,9-2.25c0,2.26,0,2.26,2,2.26a14.43,14.43,0,0,1,1.86,0c1,.12,1.29-.27,1.27-1.26C196.88-63.44,196.91-68.58,196.91-73.71Zm-5.79,10.43a3.89,3.89,0,0,1-3.53,2.63,3.93,3.93,0,0,1-4-2.11,8.5,8.5,0,0,1-.4-7.41,4.31,4.31,0,0,1,5.65-2.33,4.34,4.34,0,0,1,2.4,2.5,10.26,10.26,0,0,1-.09,6.7Z" transform="translate(36.63 99.53)"/>
  <path id="Path_41" data-name="Path 41" class="cls-2" d="M137.78-30.62V-40c0-3.13-1.29-4.71-4.22-5.47a16.26,16.26,0,0,0-8.48,0,6.3,6.3,0,0,0-4.88,4.87c-.18.87-.07,1.24.9,1.19h3.44a1,1,0,0,0,1.08-.79,3,3,0,0,1,.28-.49,4,4,0,0,1,5.59-1.08,2.1,2.1,0,0,1,.72,1.08c.51,1.49-.17,2.5-2,2.89-2.23.48-4.55.45-6.74,1.14a5.15,5.15,0,0,0-4,5.54,5.25,5.25,0,0,0,4.32,5.33,9.82,9.82,0,0,0,8.74-1.82c.42.58,0,1.66,1.25,1.6,1.47-.07,2.94,0,4.63,0a13.36,13.36,0,0,1-.62-4.57Zm-5.4-3c0,3.93-2.75,4.78-5.79,4.19A2,2,0,0,1,125-31a2.42,2.42,0,0,1,.87-2.54,5.38,5.38,0,0,1,2.38-.88,16.11,16.11,0,0,0,4.16-.95Z" transform="translate(36.63 99.53)"/>
  <path id="Path_42" data-name="Path 42" class="cls-2" d="M113.73-62.65v-8.56a4.71,4.71,0,0,0-3.6-5,14.91,14.91,0,0,0-10.08.17,5.93,5.93,0,0,0-3.83,4.33c-.26,1-.22,1.51,1.08,1.39a21.45,21.45,0,0,1,3,0h.06a1.15,1.15,0,0,0,1.34-.93c.7-2,4.55-2.78,6.06-1.21a2.23,2.23,0,0,1,.55,1.08c.3,1.52-.48,2.34-2.56,2.68a45,45,0,0,0-6.33,1.08,5.19,5.19,0,0,0-3.94,5.82,5.39,5.39,0,0,0,4.69,5.14,10,10,0,0,0,8.32-1.92c.41.55,0,1.58,1.08,1.59h4.82a15.34,15.34,0,0,1-.67-5.63Zm-5.4-1.77c0,3.24-2.6,5.07-5.77,4.06a2.07,2.07,0,0,1-1.67-1.88,2.35,2.35,0,0,1,1.23-2.51,7.11,7.11,0,0,1,2.59-.76,13.69,13.69,0,0,0,3.62-.83Z" transform="translate(36.63 99.53)"/>
  <path id="Path_43" data-name="Path 43" class="cls-2" d="M141.09-65.45c3.8.08,7.62,0,11.43,0,.55,0,1.15.14,1.17-.79.13-7.57-5.4-12.32-12.52-10.31-4.86,1.37-7.64,6.32-6.75,11.73a9.44,9.44,0,0,0,10.1,8.3c4.57-.2,7.78-2.59,8.64-6.57h-2.42a3.57,3.57,0,0,0-3.1,1.09,4.59,4.59,0,0,1-2,1.18,4.64,4.64,0,0,1-5.76-3.08C139.62-65,139.69-65.48,141.09-65.45Zm-1.27-4.27A4.24,4.24,0,0,1,144-73a4,4,0,0,1,4,3.14c.15.67,0,1-.74.94h-6.81c-.75,0-.82-.26-.7-.84Z" transform="translate(36.63 99.53)"/>
  <path id="Path_44" data-name="Path 44" class="cls-2" d="M106-34.48c1.9.13,3.82,0,5.72,0h6c.55,0,1,0,1-.77.08-8.79-6.72-12.68-13.58-10-4.78,1.88-7,7.67-5.28,13.14a8.76,8.76,0,0,0,7.82,6.37c3.7.45,7.05-.31,9.32-3.62.55-.81,1.44-1.82,1.08-2.63-.29-.64-1.64-.13-2.51-.22a2.83,2.83,0,0,0-2.79,1.08c-1.25,1.5-3.12,1.69-5,1.19a4,4,0,0,1-2.9-3.24C104.69-34,104.71-34.57,106-34.48Zm-1.08-4.41a4.14,4.14,0,0,1,4.43-3,3.78,3.78,0,0,1,3.8,3.24c.1.58.06.89-.65.87-1.14-.06-2.28,0-3.43,0h-3.42c-.9,0-.94-.41-.73-1.08Z" transform="translate(36.63 99.53)"/>
  <path id="Path_45" data-name="Path 45" class="cls-2" d="M239.16-67.58c-.84-8.06-8.36-12-14.9-7.87-4.14,2.63-5.69,8.55-3.51,13.45,1.94,4.39,7,6.49,12,5.1,3.15-.88,5-3,6-6.15h-2.74A2.93,2.93,0,0,0,233.26-62c-1.18,1.49-3.87,1.77-5.68.92a4,4,0,0,1-2.16-4.23c.39-.42.9-.22,1.35-.22H238c.84,0,1.25-.18,1.08-1.08a6.69,6.69,0,0,1,0-1Zm-6.24-1.27H226.1c-.6,0-.85-.14-.72-.83a4.24,4.24,0,0,1,4.32-3.24,4,4,0,0,1,4,3.38c0,.66-.3.71-.79.69Z" transform="translate(36.63 99.53)"/>
  <path id="Path_34" data-name="Path 34" class="cls-7" d="M-.74-45.82A14.77,14.77,0,0,1-4-52.31,12.29,12.29,0,0,1-1.5-62.39c.28-.38.53-.78.77-1.18h.26a12.65,12.65,0,0,1,1.79,1.72c3,4.88,3.11,9.73-.2,14.53A3.31,3.31,0,0,1-.43-45.89a1.14,1.14,0,0,1-.32.07Z" transform="translate(36.63 99.53)"/>
  <path id="Path_35" data-name="Path 35" class="cls-8" d="M17-63.48a12.86,12.86,0,0,1,3.63,8.58,12.35,12.35,0,0,1-3,8.23l-.63.76h-.28a3.32,3.32,0,0,1-1.87-1.77,13,13,0,0,1,0-14.11,5.88,5.88,0,0,1,1.77-1.81Z" transform="translate(36.63 99.53)"/>
  <path id="Path_36" data-name="Path 36" class="cls-9" d="M16.68-63.57c-.06.92-1,1.08-1.44,1.72a5.61,5.61,0,0,1-3.49,2,13.21,13.21,0,0,1-8.22-.36A7.61,7.61,0,0,1,.92-61.84c-.57-.49-1.24-.9-1.43-1.7a12.35,12.35,0,0,1,17.2,0Z" transform="translate(36.63 99.53)"/>
  <path id="Path_37" data-name="Path 37" class="cls-10" d="M15.22-47.5l1.48,1.65c-3.8,4.19-11.35,4.68-16,1.08A15,15,0,0,1-.48-45.85c.15-.67.85-.87,1.18-1.4,2.85-3.17,9.2-3.59,13.4-1.31a3.25,3.25,0,0,1,1.12,1.06Z" transform="translate(36.63 99.53)"/>
  <path id="Path_38" data-name="Path 38" class="cls-11" d="M15.22-47.5c-4.9-3-9.72-2.81-14.52.25A14.94,14.94,0,0,0,3-52.82a12.48,12.48,0,0,0-1.46-7.83L.92-61.79a16.84,16.84,0,0,0,6.27,2,12.08,12.08,0,0,0,7.4-1.73c.21-.12.42-.23.64-.33A5,5,0,0,1,14.45-60a12.1,12.1,0,0,0,.44,11.65,1.54,1.54,0,0,1,.33.84Z" transform="translate(36.63 99.53)"/>
</svg>
